<svg
  width="197"
  height="25"
  viewBox="0 0 197 25"
  xmlns="http://www.w3.org/2000/svg"
  fill="#1256a1"
>
  <path
    d="M50.7 24V2.1H54.96V24H50.7ZM54.36 14.88V11.28L63.12 11.25V14.85L54.36 14.88ZM54.36 5.7V2.1L63.54 2.1V5.7H54.36ZM67.732 24V7.71H71.902V24H67.732ZM65.452 10.83V7.71H71.902V10.83H65.452ZM69.262 5.76C68.442 5.76 67.832 5.55 67.432 5.13C67.052 4.69 66.862 4.15 66.862 3.51C66.862 2.83 67.052 2.28 67.432 1.86C67.832 1.44 68.442 1.23 69.262 1.23C70.082 1.23 70.682 1.44 71.062 1.86C71.442 2.28 71.632 2.83 71.632 3.51C71.632 4.15 71.442 4.69 71.062 5.13C70.682 5.55 70.082 5.76 69.262 5.76ZM76.7079 24V7.71H80.0079V14.7L79.7079 14.7C79.7079 13.04 79.9279 11.66 80.3679 10.56C80.8079 9.44 81.4579 8.6 82.3179 8.04C83.1979 7.48 84.2879 7.2 85.5879 7.2H85.7679C87.7079 7.2 89.1779 7.83 90.1779 9.09C91.1779 10.33 91.6779 12.19 91.6779 14.67V24H87.5079V14.31C87.5079 13.31 87.2179 12.5 86.6379 11.88C86.0779 11.26 85.2979 10.95 84.2979 10.95C83.2779 10.95 82.4479 11.27 81.8079 11.91C81.1879 12.53 80.8779 13.37 80.8779 14.43V24L76.7079 24ZM106.031 24V19.17H105.341V13.8C105.341 12.86 105.111 12.16 104.651 11.7C104.191 11.24 103.481 11.01 102.521 11.01C102.021 11.01 101.421 11.02 100.721 11.04C100.021 11.06 99.311 11.09 98.591 11.13C97.891 11.15 97.261 11.18 96.701 11.22V7.68C97.161 7.64 97.681 7.6 98.261 7.56C98.841 7.52 99.431 7.5 100.031 7.5C100.651 7.48 101.231 7.47 101.771 7.47C103.451 7.47 104.841 7.69 105.941 8.13C107.061 8.57 107.901 9.26 108.461 10.2C109.041 11.14 109.331 12.37 109.331 13.89V24H106.031ZM100.781 24.42C99.601 24.42 98.561 24.21 97.661 23.79C96.781 23.37 96.091 22.77 95.591 21.99C95.111 21.21 94.871 20.27 94.871 19.17C94.871 17.97 95.161 16.99 95.741 16.23C96.341 15.47 97.171 14.9 98.231 14.52C99.311 14.14 100.571 13.95 102.011 13.95H105.791V16.44H101.951C100.991 16.44 100.251 16.68 99.731 17.16C99.231 17.62 98.981 18.22 98.981 18.96C98.981 19.7 99.231 20.3 99.731 20.76C100.251 21.22 100.991 21.45 101.951 21.45C102.531 21.45 103.061 21.35 103.541 21.15C104.041 20.93 104.451 20.57 104.771 20.07C105.111 19.55 105.301 18.85 105.341 17.97L106.361 19.14C106.261 20.28 105.981 21.24 105.521 22.02C105.081 22.8 104.461 23.4 103.661 23.82C102.881 24.22 101.921 24.42 100.781 24.42ZM121.028 24.57C119.608 24.57 118.378 24.33 117.338 23.85C116.318 23.37 115.458 22.73 114.758 21.93C114.078 21.13 113.568 20.23 113.228 19.23C112.888 18.23 112.718 17.21 112.718 16.17V15.6C112.718 14.5 112.888 13.45 113.228 12.45C113.588 11.43 114.118 10.53 114.818 9.75C115.518 8.95 116.378 8.32 117.398 7.86C118.438 7.38 119.638 7.14 120.998 7.14C122.418 7.14 123.688 7.42 124.808 7.98C125.928 8.52 126.818 9.28 127.478 10.26C128.158 11.24 128.538 12.38 128.618 13.68H124.568C124.468 12.84 124.108 12.14 123.488 11.58C122.888 11.02 122.058 10.74 120.998 10.74C120.078 10.74 119.308 10.96 118.688 11.4C118.088 11.84 117.638 12.45 117.338 13.23C117.038 13.99 116.888 14.87 116.888 15.87C116.888 16.83 117.028 17.7 117.308 18.48C117.608 19.26 118.058 19.87 118.658 20.31C119.278 20.75 120.068 20.97 121.028 20.97C121.748 20.97 122.368 20.84 122.888 20.58C123.408 20.32 123.818 19.96 124.118 19.5C124.438 19.04 124.638 18.52 124.718 17.94H128.768C128.688 19.26 128.298 20.42 127.598 21.42C126.918 22.4 126.008 23.17 124.868 23.73C123.748 24.29 122.468 24.57 121.028 24.57ZM141.978 24V19.17H141.288V13.8C141.288 12.86 141.058 12.16 140.598 11.7C140.138 11.24 139.428 11.01 138.468 11.01C137.968 11.01 137.368 11.02 136.668 11.04C135.968 11.06 135.258 11.09 134.538 11.13C133.838 11.15 133.208 11.18 132.648 11.22V7.68C133.108 7.64 133.628 7.6 134.208 7.56C134.788 7.52 135.378 7.5 135.978 7.5C136.598 7.48 137.178 7.47 137.718 7.47C139.398 7.47 140.788 7.69 141.888 8.13C143.008 8.57 143.848 9.26 144.408 10.2C144.988 11.14 145.278 12.37 145.278 13.89V24L141.978 24ZM136.728 24.42C135.548 24.42 134.508 24.21 133.608 23.79C132.728 23.37 132.038 22.77 131.538 21.99C131.058 21.21 130.818 20.27 130.818 19.17C130.818 17.97 131.108 16.99 131.688 16.23C132.288 15.47 133.118 14.9 134.178 14.52C135.258 14.14 136.518 13.95 137.958 13.95H141.738V16.44H137.898C136.938 16.44 136.198 16.68 135.678 17.16C135.178 17.62 134.928 18.22 134.928 18.96C134.928 19.7 135.178 20.3 135.678 20.76C136.198 21.22 136.938 21.45 137.898 21.45C138.478 21.45 139.008 21.35 139.488 21.15C139.988 20.93 140.398 20.57 140.718 20.07C141.058 19.55 141.248 18.85 141.288 17.97L142.308 19.14C142.208 20.28 141.928 21.24 141.468 22.02C141.028 22.8 140.408 23.4 139.608 23.82C138.828 24.22 137.868 24.42 136.728 24.42ZM149.745 24V7.71H153.045V14.61H152.955C152.955 12.27 153.455 10.5 154.455 9.3C155.455 8.1 156.925 7.5 158.865 7.5H159.465V11.13H158.325C156.925 11.13 155.835 11.51 155.055 12.27C154.295 13.01 153.915 14.09 153.915 15.51V24H149.745ZM168.888 24.54C167.748 24.54 166.698 24.33 165.738 23.91C164.778 23.49 163.948 22.9 163.248 22.14C162.548 21.38 162.008 20.5 161.628 19.5C161.248 18.48 161.058 17.38 161.058 16.2V15.57C161.058 14.41 161.238 13.32 161.598 12.3C161.978 11.28 162.498 10.39 163.158 9.63C163.838 8.87 164.648 8.28 165.588 7.86C166.548 7.42 167.608 7.2 168.768 7.2C170.048 7.2 171.168 7.48 172.128 8.04C173.108 8.58 173.888 9.4 174.468 10.5C175.048 11.6 175.368 12.98 175.428 14.64L174.198 13.2V2.1H178.368V24H175.068V17.07H175.788C175.728 18.73 175.388 20.12 174.768 21.24C174.148 22.34 173.328 23.17 172.308 23.73C171.308 24.27 170.168 24.54 168.888 24.54ZM169.818 21.03C170.638 21.03 171.388 20.85 172.068 20.49C172.748 20.11 173.288 19.57 173.688 18.87C174.108 18.15 174.318 17.31 174.318 16.35V15.15C174.318 14.19 174.108 13.39 173.688 12.75C173.268 12.09 172.718 11.59 172.038 11.25C171.358 10.89 170.618 10.71 169.818 10.71C168.918 10.71 168.118 10.93 167.418 11.37C166.738 11.79 166.198 12.39 165.798 13.17C165.418 13.95 165.228 14.86 165.228 15.9C165.228 16.94 165.428 17.85 165.828 18.63C166.228 19.39 166.768 19.98 167.448 20.4C168.148 20.82 168.938 21.03 169.818 21.03ZM189.024 24.51C186.784 24.51 185.024 24.04 183.744 23.1C182.484 22.14 181.824 20.82 181.764 19.14H185.514C185.574 19.7 185.884 20.21 186.444 20.67C187.004 21.13 187.884 21.36 189.084 21.36C190.084 21.36 190.874 21.18 191.454 20.82C192.054 20.46 192.354 19.97 192.354 19.35C192.354 18.81 192.124 18.38 191.664 18.06C191.224 17.74 190.464 17.53 189.384 17.43L187.944 17.28C186.124 17.08 184.724 16.56 183.744 15.72C182.764 14.88 182.274 13.76 182.274 12.36C182.274 11.24 182.554 10.3 183.114 9.54C183.674 8.78 184.444 8.21 185.424 7.83C186.424 7.43 187.564 7.23 188.844 7.23C190.844 7.23 192.464 7.67 193.704 8.55C194.944 9.43 195.594 10.72 195.654 12.42H191.904C191.864 11.86 191.584 11.38 191.064 10.98C190.544 10.58 189.794 10.38 188.814 10.38C187.934 10.38 187.254 10.55 186.774 10.89C186.294 11.23 186.054 11.67 186.054 12.21C186.054 12.73 186.244 13.13 186.624 13.41C187.024 13.69 187.664 13.88 188.544 13.98L189.984 14.13C191.904 14.33 193.404 14.86 194.484 15.72C195.584 16.58 196.134 17.74 196.134 19.2C196.134 20.28 195.834 21.22 195.234 22.02C194.654 22.8 193.834 23.41 192.774 23.85C191.714 24.29 190.464 24.51 189.024 24.51Z" />
  <path
    d="M22.8468 24H22.3259V19.1661H12.7614V24H12.2405V19.1661H0.849025C1.54846 20.615 2.64148 21.837 4.0027 22.692C5.36392 23.547 6.9382 24.0004 8.54491 24H26.4538C28.0603 24.0001 29.6343 23.5467 30.9952 22.6917C32.3562 21.8367 33.449 20.6148 34.1484 19.1661H22.8468V24Z" />
  <path
    d="M11.5803 14.7391H0.0885515V14.2174H11.4058C11.1874 13.485 11.0798 12.7239 11.0868 11.9596C11.0941 11.2499 11.1926 10.5441 11.3798 9.85956H0.0885515V9.33783H11.5373C12.1149 7.63516 13.169 6.13471 14.574 5.01522H0.768289C0.261145 6.12757 -0.000890443 7.33628 3.22513e-06 8.55913V15.4409C-0.000951258 16.5388 0.209964 17.6266 0.621143 18.6443H14.5844C13.152 17.5409 12.1376 16.2104 11.5803 14.7391Z" />
  <path
    d="M19.4624 5.01261H15.4647C13.9069 6.055 12.7236 7.56992 12.0881 9.33522H22.8389C22.2026 7.57042 21.0195 6.05575 19.4624 5.01261Z" />
  <path
    d="M12.1845 0.22174H12.7054V4.49087H22.2256V0.22174H22.7465V4.49087H33.9726C33.2404 3.13247 32.155 1.99782 30.8313 1.20719C29.5076 0.416566 27.995 -0.000570861 26.4538 9.10771e-07H8.54491C7.00372 -0.000711362 5.49106 0.416367 4.16734 1.20701C2.84361 1.99765 1.75818 3.13238 1.02612 4.49087H12.1845V0.22174Z" />
  <path
    d="M23.3194 11.9609C23.3113 11.2486 23.2062 10.5407 23.0069 9.85696H11.9189C11.72 10.5408 11.6153 11.2486 11.6076 11.9609C11.6004 12.7261 11.7138 13.4876 11.9436 14.2174H22.9835C23.2127 13.4875 23.326 12.726 23.3194 11.9609Z" />
  <path
    d="M34.9987 8.55913C35.0002 7.23928 34.6953 5.93717 34.108 4.75565V5.01652H20.3518C21.7576 6.13525 22.8118 7.63596 23.3885 9.33913H34.97V9.86087H23.5473C23.7345 10.5454 23.833 11.2512 23.8403 11.9609C23.8464 12.7247 23.7388 13.4852 23.5213 14.2174H34.97V14.7391H23.3455C22.7895 16.213 21.7738 17.5435 20.3505 18.6522H34.2708V18.913C34.7525 17.8237 35.0009 16.6453 35 15.4539L34.9987 8.55913Z" />
  <path
    d="M22.796 14.7391H12.1298C12.6507 16.0435 13.656 17.4209 15.466 18.6522H19.4598C21.2711 17.4183 22.2673 16.0435 22.796 14.7391Z" />
  <path d="M34.2695 18.9C34.2304 18.9887 34.1913 19.0774 34.1484 19.1609Z" />
  <path d="M0.849025 19.1661C0.766987 18.9952 0.691461 18.8204 0.621143 18.6443Z" />
  <path d="M33.9726 4.49087C34.0195 4.57696 34.0637 4.66565 34.1028 4.75174Z" />
</svg>