<svg width="164" height="25" viewBox="0 0 164 25" fill="none" xmlns="http://www.w3.org/2000/svg">
<g id="Component 52 &#226;&#128;&#147; 2">
<path id="Path 469" fill-rule="evenodd" clip-rule="evenodd" d="M89.7748 11.3324C89.7748 11.3324 88.1832 10.3475 87.1971 9.96638C87.1971 9.96638 84.1485 8.55336 83.5435 7.88109C83.5435 7.88109 82.3563 6.76115 83.0509 5.46159C83.0509 5.46159 83.3423 4.61052 84.598 4.61052C84.598 4.61052 86.2327 4.70039 86.2327 6.04393V7.93929H92.0911L92.08 5.14799C92.08 5.14799 92.5304 0.575729 85.1794 0.375473C85.1794 0.375473 79.3986 -0.00462365 77.7404 3.10957C77.7404 3.10957 77.0895 3.80336 77.0895 6.2227V7.97093C77.0895 7.97093 77.0232 9.98894 78.0538 11.2874C78.0538 11.2874 78.6364 12.1386 80.0709 13.0795C80.0709 13.0795 82.9836 14.649 84.7307 15.546C84.7307 15.546 86.4964 16.5535 86.2633 18.1554C86.2633 18.1554 86.1203 19.8015 84.4162 19.734C84.4162 19.734 82.8579 19.6636 82.8579 18.0502V16.156H76.6155V18.9086C76.6155 18.9086 76.4398 24.1714 84.4631 24.1714C84.4631 24.1714 92.1259 24.3277 92.4844 18.7696V16.5299C92.4844 16.5299 92.7543 13.1245 89.7748 11.3324Z" fill="white"/>
<path id="Path 470" fill-rule="evenodd" clip-rule="evenodd" d="M59.7831 1.0293L57.8215 13.3226H57.3629L55.4887 1.1394H45.7026L45.2129 23.4007H51.007L51.0763 6.6275H51.5317L54.6031 23.3972H60.6986L63.7324 6.63385H64.1357L64.2756 23.4007H70.0999L69.4735 1.0293H59.7831Z" fill="white"/>
<path id="Path 471" fill-rule="evenodd" clip-rule="evenodd" d="M25.2925 1.12164L21.4375 23.3755H27.6747L29.9579 6.12057H30.4712L32.7538 23.3755H38.9904L35.1362 1.12164H25.2925Z" fill="white"/>
<path id="Path 472" fill-rule="evenodd" clip-rule="evenodd" d="M156.175 11.0252V14.3091H157.774V17.833C157.774 19.5546 156.302 19.5863 156.302 19.5863C154.512 19.5863 154.579 17.9495 154.579 17.9495V5.76028C154.579 4.50458 156.167 4.43722 156.167 4.43722C157.692 4.43722 157.703 5.935 157.703 5.935V7.78845H163.576C163.767 4.17154 163.047 3.2959 163.047 3.2959C161.59 0.0242605 156.079 0.203155 156.079 0.203155C147.61 0.203155 148.549 6.70129 148.549 6.70129V18.4869C148.731 24.5815 157.075 23.9634 157.217 23.9551C160.93 23.5444 162.051 22.3653 162.051 22.3653C163.083 21.5991 163.349 20.5385 163.349 20.5385C163.642 19.9204 163.717 17.9495 163.717 17.9495V11.0252H156.175Z" fill="white"/>
<path id="Path 473" fill-rule="evenodd" clip-rule="evenodd" d="M136.708 14.6474H136.453L130.491 1.03442H123.363V23.4044H129.165L128.817 9.79291H129.076L135.25 23.4044H142.166V1.03302H136.29L136.708 14.6474Z" fill="white"/>
<path id="Path 474" fill-rule="evenodd" clip-rule="evenodd" d="M109.195 17.8296C109.195 17.8296 109.28 19.6656 107.578 19.6656C107.578 19.6656 105.787 19.7617 105.787 17.8756L105.77 1.04767H99.4032V17.7417C99.4032 17.7417 98.7502 24.0601 107.667 24.0601C107.667 24.0601 115.415 24.152 115.415 18.0309V1.04874H109.195V17.8296Z" fill="white"/>
<path id="Path 475" fill-rule="evenodd" clip-rule="evenodd" d="M13.1577 11.3322C13.1577 11.3322 11.5669 10.3473 10.5809 9.96624C10.5809 9.96624 7.53314 8.55529 6.92938 7.88094C6.92938 7.88094 5.74109 6.76012 6.43701 5.46248C6.43701 5.46248 6.72699 4.61135 7.98169 4.61135C7.98169 4.61135 9.61743 4.70031 9.61743 6.04378V7.93914H15.4779L15.4658 5.14681C15.4658 5.14681 15.9142 0.575551 8.56512 0.375325C8.56512 0.375325 8.01129 0.339528 7.19916 0.380482C7.19916 0.380482 2.7475 0.619527 1.15564 3.06142C1.14746 3.07879 1.13428 3.09307 1.12512 3.10943C1.12512 3.10943 0.475159 3.80214 0.475159 6.22255V7.97072C0.475159 7.97072 0.407837 9.98769 1.43976 11.2873C1.43976 11.2873 2.02112 12.1384 3.45667 13.0794C3.45667 13.0794 6.36743 14.6478 8.11554 15.5449C8.11554 15.5449 9.8819 16.5522 9.64917 18.1553C9.64917 18.1553 9.505 19.8013 7.80188 19.7339C7.80188 19.7339 6.24384 19.6634 6.24384 18.0501V16.1548H0.000305213V18.9084C0.000305213 18.9084 -0.174561 24.1713 7.84686 24.1713C7.84686 24.1713 15.5095 24.3275 15.8691 18.7694V16.5308C15.8691 16.5308 16.1379 13.1243 13.1577 11.3322Z" fill="white"/>
</g>
</svg>
