<svg width="162" height="50" viewBox="0 0 162 50" fill="none" xmlns="http://www.w3.org/2000/svg">
<g id="spotify-seeklogo.com 2">
<path id="spotify-seeklogo.com 2_2" d="M24.2509 0.873352C10.8578 0.873352 0 11.7308 0 25.124C0 38.5185 10.8578 49.3754 24.2509 49.3754C37.6446 49.3754 48.5017 38.5185 48.5017 25.124C48.5017 11.7318 37.6451 0.874573 24.2506 0.874573L24.2509 0.873352ZM35.3722 35.8497C34.9366 36.564 34.0059 36.788 33.2938 36.3527C27.5991 32.872 20.4312 32.0859 11.9897 34.0142C11.1763 34.2009 10.3655 33.6909 10.1801 32.8777C9.99393 32.0643 10.5016 31.2534 11.317 31.0679C20.5549 28.9561 28.4788 29.8652 34.8709 33.7712C35.5833 34.2083 35.8091 35.1378 35.3719 35.8502L35.3722 35.8497ZM38.3404 29.2475C37.7919 30.1374 36.6284 30.4164 35.7397 29.8702C29.2225 25.864 19.2847 24.7034 11.5745 27.0439C10.5745 27.3459 9.51842 26.7824 9.21494 25.7842C8.91377 24.7842 9.47761 23.7303 10.4758 23.4261C19.283 20.754 30.2317 22.0483 37.7175 26.6485C38.6066 27.1955 38.8875 28.3598 38.3401 29.2477L38.3404 29.2475H38.3404ZM38.5953 22.3714C30.7781 17.7292 17.884 17.3021 10.4216 19.5671C9.22333 19.9305 7.95609 19.2541 7.59295 18.0557C7.2298 16.8569 7.9057 15.5905 9.10488 15.2261C17.6712 12.6255 31.9116 13.1282 40.9102 18.4702C41.9881 19.1097 42.3416 20.5019 41.7028 21.5782C41.0657 22.6559 39.6699 23.0114 38.5955 22.3714H38.5953ZM65.9786 23.261C61.7914 22.2625 61.0461 21.5618 61.0461 20.0893C61.0461 18.6981 62.3559 17.7617 64.3036 17.7617C66.1917 17.7617 68.0639 18.4728 70.0267 19.9365C70.0861 19.9807 70.1605 19.9984 70.2338 19.9866C70.3071 19.9756 70.3719 19.9354 70.4148 19.8751L72.4593 16.9929C72.5433 16.8741 72.5204 16.7105 72.4071 16.6201C70.071 14.7455 67.4404 13.8342 64.3656 13.8342C59.8446 13.8342 56.6866 16.5472 56.6866 20.4294C56.6866 24.5921 59.4108 26.0661 64.1183 27.2038C68.125 28.1266 68.8013 28.9 68.8013 30.2823C68.8013 31.8137 67.4338 32.7659 65.2332 32.7659C62.7891 32.7659 60.7956 31.9427 58.5655 30.0113C58.5102 29.9636 58.4343 29.942 58.3642 29.946C58.2904 29.952 58.2229 29.9859 58.176 30.0427L55.8836 32.7709C55.7875 32.884 55.7997 33.053 55.9109 33.1509C58.5056 35.4673 61.6968 36.6907 65.1406 36.6907C70.0123 36.6907 73.1604 34.0291 73.1604 29.9091C73.1691 26.4312 71.087 24.5053 65.9873 23.2647L65.9786 23.261ZM84.182 19.1315C82.0704 19.1315 80.3384 19.9633 78.9101 21.6674V19.7492C78.9101 19.5976 78.7873 19.4745 78.6362 19.4745H74.8869C74.7354 19.4745 74.6129 19.5976 74.6129 19.7492V41.0633C74.6129 41.2149 74.7354 41.3382 74.8869 41.3382H78.6362C78.7873 41.3382 78.9101 41.2149 78.9101 41.0633V34.3354C80.3387 35.9387 82.071 36.7219 84.182 36.7219C88.1057 36.7219 92.0777 33.7015 92.0777 27.9278C92.0834 22.1526 88.1103 19.1313 84.1864 19.1313L84.182 19.1315ZM87.7179 27.9278C87.7179 30.8679 85.9068 32.9195 83.3136 32.9195C80.7499 32.9195 78.816 30.7747 78.816 27.9278C78.816 25.081 80.7499 22.9359 83.3136 22.9359C85.8648 22.9356 87.7182 25.0345 87.7182 27.9273L87.7179 27.9278ZM102.258 19.1315C97.2051 19.1315 93.2464 23.0224 93.2464 27.9904C93.2464 32.9046 97.1778 36.7547 102.196 36.7547C107.267 36.7547 111.238 32.8768 111.238 27.9278C111.238 22.9958 107.294 19.132 102.258 19.132L102.258 19.1315ZM102.258 32.9489C99.5704 32.9489 97.5442 30.7894 97.5442 27.9263C97.5442 25.051 99.5003 22.9644 102.196 22.9644C104.901 22.9644 106.941 25.124 106.941 27.9892C106.941 30.864 104.972 32.9489 102.258 32.9489H102.258ZM122.028 19.4745H117.902V15.2562C117.902 15.1053 117.78 14.9818 117.629 14.9818H113.88C113.728 14.9818 113.605 15.1053 113.605 15.2562V19.4745H111.803C111.652 19.4745 111.529 19.5976 111.529 19.7492V22.9714C111.529 23.1225 111.652 23.2463 111.803 23.2463H113.605V31.5838C113.605 34.9531 115.282 36.6614 118.59 36.6614C119.934 36.6614 121.05 36.3836 122.102 35.7875C122.187 35.7398 122.24 35.6475 122.24 35.5496V32.4813C122.24 32.3867 122.191 32.2972 122.11 32.2474C122.028 32.1962 121.926 32.1937 121.843 32.235C121.121 32.5984 120.422 32.7662 119.642 32.7662C118.439 32.7662 117.902 32.22 117.902 30.9959V23.2479H122.028C122.18 23.2479 122.302 23.1243 122.302 22.973V19.751C122.307 19.5995 122.186 19.476 122.032 19.476L122.028 19.4745ZM136.403 19.491V18.973C136.403 17.4488 136.988 16.769 138.298 16.769C139.08 16.769 139.708 16.9243 140.411 17.1589C140.497 17.186 140.588 17.1725 140.658 17.1207C140.731 17.0687 140.771 16.9857 140.771 16.8976V13.7385C140.771 13.6176 140.694 13.5107 140.577 13.4749C139.835 13.254 138.884 13.0273 137.461 13.0273C133.998 13.0273 132.168 14.9775 132.168 18.6647V19.4582H130.367C130.215 19.4582 130.091 19.5815 130.091 19.7326V22.9714C130.091 23.1225 130.215 23.2463 130.367 23.2463H132.168V36.1066C132.168 36.258 132.29 36.3813 132.441 36.3813H136.19C136.342 36.3813 136.465 36.258 136.465 36.1066V23.2471H139.966L145.328 36.1042C144.719 37.4551 144.121 37.7238 143.304 37.7238C142.643 37.7238 141.947 37.5267 141.236 37.1375C141.169 37.1006 141.09 37.0944 141.018 37.1169C140.946 37.1422 140.886 37.1954 140.856 37.265L139.585 40.0527C139.524 40.1846 139.576 40.3393 139.703 40.4077C141.03 41.1259 142.227 41.4324 143.707 41.4324C146.476 41.4324 148.006 40.1431 149.355 36.6739L155.859 19.8663C155.892 19.7816 155.882 19.6861 155.83 19.611C155.779 19.5367 155.696 19.4918 155.605 19.4918H151.702C151.585 19.4918 151.48 19.5661 151.442 19.676L147.443 31.0967L143.064 19.6685C143.024 19.5621 142.922 19.4918 142.808 19.4918H136.402L136.403 19.491ZM128.069 19.4745H124.32C124.168 19.4745 124.045 19.5976 124.045 19.7492V36.1066C124.045 36.258 124.168 36.3813 124.32 36.3813H128.069C128.22 36.3813 128.344 36.258 128.344 36.1066V19.7505C128.344 19.6774 128.315 19.6074 128.263 19.5556C128.212 19.5042 128.142 19.4753 128.069 19.4755L128.069 19.4745ZM126.216 12.0266C124.73 12.0266 123.525 13.2288 123.525 14.7143C123.525 16.2005 124.731 17.4042 126.216 17.4042C127.7 17.4042 128.904 16.2005 128.904 14.7143C128.904 13.2291 127.7 12.0266 126.217 12.0266H126.216ZM159.061 24.7335C157.577 24.7335 156.422 23.5419 156.422 22.0949C156.422 20.6478 157.592 19.4426 159.074 19.4426C160.558 19.4426 161.713 20.6339 161.713 22.0798C161.713 23.5269 160.543 24.7335 159.06 24.7335H159.061ZM159.075 19.705C157.723 19.705 156.701 20.7794 156.701 22.0949C156.701 23.4099 157.716 24.4698 159.061 24.4698C160.413 24.4698 161.436 23.3962 161.436 22.0798C161.436 20.7648 160.42 19.705 159.076 19.705H159.075H159.075ZM159.66 22.351L160.406 23.3959H159.777L159.105 22.4374H158.527V23.3959H158.001V20.6264H159.236C159.879 20.6264 160.302 20.9557 160.302 21.5098C160.305 21.9639 160.042 22.2414 159.662 22.3513H159.66V22.351ZM159.214 21.1017H158.527V21.9776H159.214C159.557 21.9776 159.762 21.8099 159.762 21.5391C159.762 21.2543 159.556 21.1017 159.214 21.1017H159.214Z" fill="white"/>
</g>
</svg>
