<svg width="103" height="64" viewBox="0 0 103 64" fill="none" xmlns="http://www.w3.org/2000/svg">
<g id="Vector">
<path fill-rule="evenodd" clip-rule="evenodd" d="M98.1776 0.873291H73.8553H73.7869C70.4392 0.941547 66.2716 3.67178 65.5201 6.94805L63.3338 16.5038H61.3525L63.5388 6.94805C64.2903 3.67178 68.4579 0.941547 71.8056 0.873291H62.1723H44.8871H44.7504C41.4027 0.941547 37.1668 3.60352 36.4152 6.94805L34.2289 16.5038H31.906L34.0923 6.94805C34.8438 3.60352 39.0797 0.941547 42.4275 0.873291H20.0864C16.7387 0.873291 12.4345 3.60352 11.6146 6.94805L0.136643 57.7985C0.0683218 58.1398 0 58.4128 0 58.6859V59.6414C0.204964 62.0986 2.04964 63.805 4.78249 63.8733H27.1919C23.9124 63.805 21.7945 61.1431 22.546 57.7985L25.2105 45.9903H27.5335L24.8689 57.7303C24.1174 61.0748 26.167 63.7368 29.5148 63.805H56.6383C53.2906 63.7368 51.2409 61.0748 51.9925 57.7303L52.8806 53.7714H54.8619L53.9738 57.7303C53.2222 61.0748 55.2719 63.7368 58.6196 63.805H84.1718C87.4512 63.6685 90.594 61.0066 91.3455 57.7303L102.823 6.87979C103.643 3.60352 101.525 0.873291 98.1776 0.873291ZM39.1481 22.9199H36.7568L34.8438 31.7249H37.2351L39.1481 22.9199ZM45.5019 45.5125L44.8187 48.1062C44.6821 48.584 44.8871 48.7205 45.5019 48.7205H47.9615L47.4833 50.3587H42.7691C41.8809 50.3587 41.6076 49.8126 41.8809 48.7888L42.7691 45.5125H40.8561L41.3343 43.7379H43.3157L43.7939 41.9632H41.9492L42.4275 40.1886H50.1478L49.6695 41.9632H46.5268L46.0485 43.7379H48.9863L48.5081 45.5125H45.5019ZM39.558 21.896H37.0984L37.5767 19.7801H40.0362L39.558 21.896ZM44.0672 37.4583L45.1603 35.8202H48.0981L47.4833 36.9123H51.036L50.5577 38.5504H46.3901C45.9119 39.3013 45.3653 39.6425 44.6138 39.5743H42.4275L42.9057 37.8679H43.3157C43.6573 37.8679 43.9306 37.7314 44.0672 37.4583ZM40.3778 28.6534C40.3778 29.6772 40.7195 30.4963 41.3343 31.1106C41.9492 31.6566 42.8374 31.9979 43.9306 31.9296C45.297 31.9296 46.3901 31.5201 47.3466 30.701C48.3031 29.882 48.918 28.7899 49.1913 27.3565C49.1913 27.2102 49.2109 27.0835 49.2291 26.9659C49.2449 26.864 49.2596 26.769 49.2596 26.6739V26.0596C49.2596 25.0358 48.918 24.2167 48.3031 23.6024C47.6882 23.0564 46.8 22.7151 45.7069 22.7151C44.3405 22.7151 43.2473 23.1929 42.2908 24.012C41.3343 24.831 40.7195 25.9914 40.4462 27.4248C40.4462 27.4861 40.4324 27.5751 40.4172 27.673C40.3986 27.7929 40.3778 27.9263 40.3778 28.0391V28.6534ZM28.8999 23.8755C29.6514 23.1246 30.4713 22.7151 31.4961 22.7151C32.3843 22.7151 33.0675 22.9881 33.4774 23.5342C33.8873 24.0802 34.024 24.831 33.819 25.7866L32.5892 31.7931H30.3346L31.4278 26.3327C31.5644 25.7866 31.5644 25.3771 31.3594 25.1041C31.2228 24.831 30.8812 24.6945 30.4029 24.6945C29.8564 24.6945 29.3781 24.8993 28.9682 25.2406C28.5583 25.5819 28.285 26.1279 28.1484 26.7422L27.1235 31.7931H24.8689L26.6453 22.9199H28.8316L28.5583 24.2167L28.8999 23.8755ZM77.5446 24.3533C76.4515 23.5342 75.495 22.9881 73.582 23.8755C71.0541 25.1041 68.9361 34.1821 75.9732 31.2471L76.3831 31.7249L79.1843 31.7931L80.9607 23.4659L78.5694 23.6707L77.5446 24.3533ZM53.9738 25.1723C53.5639 25.5136 53.2906 26.0596 53.1539 26.6739L52.1291 31.6566H49.8745L51.6509 22.8516H53.8371L53.5638 24.1485L53.9055 23.8072C54.657 23.0564 55.4768 22.6469 56.5017 22.6469C57.3898 22.6469 58.073 22.9199 58.483 23.4659C58.8929 24.012 59.0295 24.7628 58.8246 25.7184L57.5948 31.7249H55.3402L56.4333 26.2644C56.57 25.7184 56.57 25.3088 56.365 25.0358C56.2284 24.7628 55.8868 24.6263 55.4085 24.6263C54.8619 24.6263 54.3837 24.831 53.9738 25.1723ZM57.4582 45.2395C57.7998 45.2395 57.9364 45.103 57.9364 44.8982L58.0731 44.1474H60.191L59.9177 45.1712C59.7128 46.0586 59.0979 46.4681 58.0731 46.5364H56.7066V48.3793C56.7066 48.7205 56.9799 48.857 57.5265 48.857H58.7563L58.3463 50.3587H55.3402C54.5204 50.4269 54.1104 50.0174 54.1104 49.1301L54.3154 44.1474H56.8433L56.7749 45.2395H57.4582ZM59.5761 31.7931H62.5139L63.6071 26.6739H67.0231C68.3896 26.6739 69.551 26.2644 70.5758 25.4453C71.6006 24.6263 72.2155 23.5342 72.4888 22.1691C72.5572 21.896 72.6255 21.623 72.6255 21.4183V20.7357C72.6255 19.7119 72.2839 18.8928 71.669 18.3467C71.0541 17.8007 70.0976 17.5277 68.8678 17.5277H62.5139L59.5761 31.7931ZM77.5446 35.7519L77.6812 36.7758C77.6129 37.0488 77.8179 37.1853 78.0912 37.1853H78.5694L78.0912 38.8917H76.0415C75.29 38.96 74.8801 38.6187 74.8118 38.0044L74.7434 35.7519H77.5446ZM60.396 42.5775L62.2406 35.8202H57.4582C56.0917 35.8202 54.657 36.9123 54.657 36.9123L54.7936 35.8885H52.1974L48.5081 49.4031C48.3714 50.0174 48.7814 50.3587 49.8745 50.3587H52.6074L53.0173 48.9253H51.9241C51.5825 48.9253 51.5142 48.7888 51.5825 48.5158L52.8806 43.7379H58.4147C59.5761 43.7379 60.2593 43.3283 60.396 42.5775ZM85.7432 22.9881L85.8798 28.9264L88.4077 22.9199H90.9356L85.7432 33.4313C84.855 35.4107 83.9668 36.571 83.4202 37.1171C82.942 37.6631 81.8488 38.8917 79.3893 38.8235L79.5942 37.3218C81.535 36.6964 82.6726 34.2369 83.3225 32.8319C83.3818 32.7037 83.4371 32.5842 83.4885 32.4757L82.737 22.9881H84.3767H85.7432ZM70.7808 49.5396L71.3274 47.6284H70.7125L73.4453 37.9361H73.9919L74.5385 35.8885H70.9174C69.8243 35.8885 68.3212 36.6393 68.3212 36.6393L68.4579 35.8885H65.5201L64.9735 37.9361H65.5201L62.7872 47.6284H62.2406L61.6941 49.5396H67.3647L67.0915 50.3587H69.9609L70.2342 49.5396H70.7808ZM76.5881 41.3489H73.4453L74.0602 39.506H83.0103L82.4637 41.3489H79.5942L79.116 43.0553H81.9855L81.4389 44.8982H78.2278L77.4763 45.9903H79.0477L79.3893 48.1745C79.3893 48.4475 79.5942 48.5158 79.9359 48.5158H80.4141L79.9359 50.2904H78.2278C77.3396 50.3587 76.8614 50.0174 76.8614 49.4031L76.4515 47.4237L75.0167 49.5396C74.6751 50.1539 74.1285 50.4269 73.4453 50.3587H70.8491L71.3274 48.584H72.1472C72.4888 48.584 72.7621 48.3793 73.0354 48.1062L75.29 44.8982H72.4205L72.9671 43.0553H76.1099L76.5881 41.3489ZM20.7013 26.7422L22.751 16.9816V16.9134H25.8937L23.8441 26.7422C23.5025 28.4486 22.6827 29.7454 21.4529 30.6328C20.2231 31.5884 18.6517 31.9979 16.7387 31.9979C14.9623 31.9979 13.5959 31.5201 12.7761 30.6328C12.1612 30.0185 11.8879 29.1994 11.8879 28.1756C11.8879 27.7515 11.9417 27.3813 12.0016 26.9693C12.0092 26.9171 12.0169 26.8642 12.0245 26.8105L14.0742 16.9816H17.1486L15.099 26.7422C15.0307 27.0152 15.0307 27.2882 15.0307 27.493C15.0307 27.9708 15.1673 28.3803 15.4406 28.7216C15.7822 29.1994 16.3971 29.4042 17.217 29.4042C18.1735 29.4042 18.925 29.1994 19.5399 28.7216C20.1548 28.2438 20.4964 27.6295 20.7013 26.7422Z" fill="white"/>
<path d="M58.8246 37.7314H54.452L53.9055 39.5743C53.9055 39.5743 54.657 39.0282 55.8185 39.0282H58.4147L58.8246 37.7314Z" fill="white"/>
<path d="M58.0047 40.5981H53.6322L53.2906 41.9632H57.2532C57.5948 41.9632 57.7314 41.895 57.7998 41.5537L58.0047 40.5981Z" fill="white"/>
<path d="M68.1846 45.649H65.9983L65.4517 47.6284H67.7063L68.1846 45.649Z" fill="white"/>
<path d="M69.2777 41.7585H67.0915L66.3399 44.4887C66.3399 44.4887 67.7747 43.8061 68.7312 43.7379C69.0044 42.714 69.2777 41.7585 69.2777 41.7585Z" fill="white"/>
<path d="M70.3709 37.9361H68.1846L67.4331 40.5981C67.4331 40.5981 68.7312 40.1203 69.8243 39.9838C70.0293 39.0282 70.3709 37.9361 70.3709 37.9361Z" fill="white"/>
<path d="M64.0853 24.1485H66.8865C67.638 24.1485 68.1846 24.012 68.6628 23.6707C69.0728 23.3294 69.346 22.7834 69.551 22.1008C69.551 22.0208 69.5745 21.9409 69.5939 21.8746C69.6076 21.8278 69.6193 21.7878 69.6193 21.7595V21.4865C69.6193 21.0087 69.4144 20.5992 69.0728 20.3944C68.7312 20.1897 68.1846 20.0531 67.3647 20.0531H64.9735L64.0853 24.1485Z" fill="white"/>
<path d="M74.7434 30.155C75.5633 30.428 76.5198 29.5407 76.998 28.2438C77.4763 26.947 77.1347 25.6501 76.3831 25.3771C75.6316 25.1041 74.6068 25.9914 74.1285 27.2882C73.7186 28.6534 73.9919 29.882 74.7434 30.155Z" fill="white"/>
<path d="M42.7008 28.3121C42.7008 28.8581 42.8374 29.2677 43.1107 29.5407C43.384 29.8137 43.7939 30.0185 44.2722 30.0185C44.9554 30.0185 45.5019 29.8137 45.9119 29.3359C46.3218 28.8581 46.6634 28.1756 46.8 27.22C46.8 27.1517 46.8171 27.0835 46.8342 27.0152C46.8513 26.947 46.8684 26.8787 46.8684 26.8105V26.4009C46.8684 25.8549 46.7317 25.4453 46.4584 25.1041C46.1852 24.831 45.7752 24.6263 45.297 24.6263C44.6138 24.6263 44.0672 24.831 43.6573 25.3088C43.2473 25.7866 42.9057 26.4692 42.7008 27.4248C42.7008 27.493 42.6837 27.5613 42.6666 27.6295C42.6495 27.6978 42.6325 27.766 42.6325 27.8343C42.7008 28.1073 42.7008 28.2438 42.7008 28.3121Z" fill="white"/>
</g>
</svg>
