<svg width="109" height="65" viewBox="0 0 109 65" fill="none" xmlns="http://www.w3.org/2000/svg">
<g id="Group">
<path id="Vector" fill-rule="evenodd" clip-rule="evenodd" d="M109 32.2642C109 14.4458 94.5549 0.000622228 76.7371 0.000622228C69.005 0.000622228 61.9694 2.70657 56.413 7.24211C60.6515 11.3342 63.8871 16.4577 65.623 22.2492H62.9425C61.2624 17.1002 58.3115 12.5572 54.4755 8.91169C50.6139 12.5891 47.7238 17.1662 46.0637 22.2336H43.3826C45.0946 16.5484 48.2322 11.3954 52.4971 7.26444C46.9543 2.77541 39.9522 0 32.2636 0C14.4458 0 0 14.4451 0 32.2636C0 50.0814 14.4451 64.5265 32.2636 64.5265C39.9516 64.5265 46.9543 61.7511 52.4971 57.2621C48.2915 53.1824 45.1111 48.0521 43.3826 42.2935H46.0637C47.724 47.3609 50.614 51.9379 54.4755 55.6154C58.3121 51.9693 61.2624 47.4269 62.9425 42.2774H65.623C63.8871 48.0688 60.6515 53.1929 56.413 57.2844C61.9694 61.8193 69.005 64.5259 76.7371 64.5259C94.5549 64.5265 109 50.0814 109 32.2642Z" fill="var(--foreground)"/>
<path id="Vector_2" fill-rule="evenodd" clip-rule="evenodd" d="M85.2884 39.8214L87.5162 27.8837H90.3325L90.6271 29.0602C91.1319 28.471 92.0988 27.8837 93.738 27.8837L92.8561 30.9934C92.0567 30.9934 90.5434 30.7844 89.5771 34.3568L88.568 39.8214H85.2884ZM42.1192 24.8497H45.3653L44.6992 28.0127H46.4463L45.8646 30.5928H44.2L43.2839 35.4198C43.1171 36.3358 43.2008 37.1688 45.0738 36.8773L44.8654 39.2905C44.1578 39.7482 43.2008 39.8741 42.451 39.8741C41.7024 39.8741 39.2464 39.4151 39.8716 36.1696L42.1192 24.8497ZM56.186 34.505C56.5606 32.5898 57.4351 27.8465 51.7336 27.8465C46.4891 27.8465 45.8237 33.0481 45.699 33.7967C45.5743 34.5465 45.4912 39.8313 51.109 39.8313C52.4828 39.8735 54.4804 39.7066 55.2718 39.2899L55.7711 36.8357C55.2718 36.9591 53.3982 37.1266 52.1075 37.1266C50.8181 37.1266 48.7374 37.2103 49.1113 34.505H56.186ZM39.0405 30.6765L39.7891 28.262C38.2491 27.6797 37.0428 27.8049 36.5845 27.8049C36.1262 27.8049 32.2294 27.7572 31.6322 30.6349C31.1745 32.841 31.982 33.7533 32.756 34.0888C34.0051 34.6303 34.7127 35.1295 35.3788 35.4626C36.2024 35.8744 36.0511 37.2519 34.962 37.2519C34.4622 37.2519 32.2989 37.5012 30.6758 36.9598L30.2181 39.4151C31.7165 39.8319 32.9222 39.8319 34.0472 39.8319C34.8374 39.8319 38.7081 40.0403 39.2483 36.4605C39.5125 34.7152 38.749 33.9214 38.1245 33.5486C37.5005 33.1319 36.4598 32.5495 35.7944 32.2574C35.1283 31.9665 34.629 30.8433 35.8359 30.5103C36.5845 30.4265 38.1238 30.4265 39.0405 30.6765ZM17.9821 39.8313L20.6868 25.432H15.3605L11.4061 34.1719L10.7816 25.432H5.57994L2.7915 39.8313H6.03702L8.0347 29.4274L8.90918 39.8313H11.9885L16.5253 29.6773L14.6107 39.8313H17.9821ZM21.5601 28.2211L21.0608 30.8011C21.8522 30.7187 23.9745 30.3856 25.0977 30.4265C26.2221 30.4681 27.47 30.3019 27.0954 32.0912C26.2631 32.1749 20.4369 31.2589 19.5221 36.2521C19.1475 38.7087 21.2692 39.9566 22.9338 39.8741C24.5984 39.7904 25.0562 39.582 25.6392 39.1652L26.0553 39.8313H29.0924L30.3831 33.3396C30.7161 31.7166 31.2563 27.8043 25.8054 27.8043C24.8068 27.8465 23.6837 27.8043 21.5601 28.2211ZM74.1644 28.7613C73.3309 28.2614 72.7497 28.1789 71.6669 28.1789C70.5852 28.1789 68.1708 29.2128 67.7143 32.1327C67.1729 35.5866 69.5445 37.2922 72.8744 36.1696L73.8314 39.0827C72.7497 39.582 71.6669 39.8313 69.8776 39.8313C66.5062 39.8313 62.8445 36.8357 64.5091 30.759C65.7365 26.2817 69.5873 24.6419 71.8343 24.725C74.4969 24.8242 75.4551 25.7235 76.2874 26.6396L74.1644 28.7613ZM101.84 29.2606C101.215 28.8035 100.842 27.8465 99.3006 27.8465C97.5114 27.8465 94.7229 27.5134 93.142 32.9235C92.0846 36.5393 94.2236 39.8319 96.5531 39.8319C97.636 39.791 98.7176 39.3327 99.3825 38.8749L99.8005 39.8319H103.295L106.126 24.6841H102.712L101.84 29.2606ZM76.4952 28.2211L75.9947 30.8011C76.7867 30.7187 78.9077 30.3856 80.0322 30.4265C81.156 30.4681 82.4051 30.3019 82.0298 32.0912C81.1975 32.1749 75.3713 31.2589 74.4565 36.2521C74.0813 38.7087 76.203 39.9566 77.8677 39.8741C79.5335 39.7904 79.99 39.582 80.5736 39.1652L80.9904 39.8313H84.0269L85.3182 33.3396C85.6512 31.7166 86.1914 27.8043 80.7392 27.8043C79.7413 27.8465 78.6175 27.8043 76.4952 28.2211Z" />
<path id="Vector_3" fill-rule="evenodd" clip-rule="evenodd" d="M49.3192 32.3409H53.3561C53.5645 31.1755 53.1899 30.1764 51.8999 30.1764C50.6093 30.1764 49.6938 30.8425 49.3192 32.3409ZM26.5553 34.5048C26.0139 34.4198 24.807 34.088 23.7663 34.7957C22.7256 35.5033 22.4347 36.7505 23.5169 37.1686C24.5583 37.5686 26.0957 36.8777 26.3054 35.7936L26.5553 34.5048ZM100.674 34.1296C101.008 33.0479 100.826 31.6971 100.466 31.2177C99.4682 29.8861 97.1716 30.9386 96.4714 33.5484C96.0137 35.254 97.0128 36.544 98.136 36.544C99.3435 36.5434 100.092 35.5864 100.674 34.1296ZM81.4898 34.5048C80.9483 34.4198 79.742 34.088 78.7013 34.7957C77.6606 35.5033 77.3691 36.7505 78.452 37.1686C79.494 37.5686 81.0308 36.8777 81.2392 35.7936L81.4898 34.5048Z" fill="var(--foreground)"/>
<path id="Vector_4" fill-rule="evenodd" clip-rule="evenodd" d="M56.2791 39.8314L58.4851 28.0128H61.2735L61.5644 29.1782C62.0649 28.5952 63.0219 28.0128 64.6437 28.0128L63.8114 31.1343C63.0219 31.1343 61.4807 30.885 60.5237 34.4208L59.5258 39.832L56.2791 39.8314Z" />
</g>
</svg>
