<svg width="86" height="29" viewBox="0 0 86 29" fill="none" xmlns="http://www.w3.org/2000/svg">
<g id="Group 113">
<path id="Path 455" d="M37.1477 28.2472H30.1558L34.526 1.38885H41.5186L37.1477 28.2472Z" fill="white"/>
<path id="Path 456" d="M24.2731 1.38916L17.6062 19.8615L16.8181 15.8835L16.8188 15.885L14.4653 3.80812C14.4653 3.80812 14.1815 1.38916 11.1484 1.38916H0.128594L0 1.84321C0 1.84321 3.3708 2.5444 7.31346 4.91451L13.3884 28.247H20.6738L31.7985 1.38916H24.2731Z" fill="white"/>
<path id="Path 457" d="M79.2715 28.247H85.692L80.0941 1.38916H74.4725C71.8762 1.38916 71.244 3.39071 71.244 3.39071L60.8169 28.247H68.1045L69.5629 24.2583H78.4518L79.2715 28.247ZM71.5773 18.7464L75.252 8.69561L77.3189 18.7464H71.5773Z" fill="white"/>
<path id="Path 458" d="M61.3633 7.84783L62.3605 2.07955C62.3605 2.07955 59.2813 0.908508 56.0715 0.908508C52.6015 0.908508 44.362 2.42583 44.362 9.79981C44.362 16.7391 54.0326 16.8254 54.0326 20.4685C54.0326 24.1117 45.3585 23.4608 42.4963 21.1625L41.4561 27.1923C41.4561 27.1923 44.5776 28.7097 49.3493 28.7097C54.1203 28.7097 61.3195 26.2375 61.3195 19.5144C61.3195 12.5313 51.5613 11.8811 51.5613 8.84573C51.5613 5.80892 58.3711 6.19903 61.3633 7.84783Z" fill="white"/>
</g>
</svg>
